<svg version="1.0" xmlns="http://www.w3.org/2000/svg" width="666.667" height="666.667" viewBox="0 0 500 500"><path d="M248 59.7c-.8.3-4.4 1.9-8 3.6-16.2 7.4-19.9 9-25.5 11.2-3.3 1.2-15.2 6.3-26.5 11.3-18.9 8.3-32.7 14.3-58.5 25.2-17.7 7.5-22.9 9.7-29.3 12.6l-6.3 2.7.3 68.6c.4 66 .5 69 2.5 78.1 4.7 20.6 13.8 41.6 24.7 57 11.5 16.2 31.1 34.5 52.6 49.3 9.8 6.6 34.7 22.4 42.3 26.6 25.9 14.6 32.4 18.1 33.9 18.1 1 0 5.4-2 9.9-4.5s8.7-4.5 9.3-4.5c.7 0 2.3 1.1 3.6 2.5s3 2.5 3.8 2.5c2 0 21.2-18.2 21.2-20.1 0-1 4.1-4.3 10.3-8.2 24.5-15.8 41.9-29.1 54.2-41.6 6.4-6.6 7.2-7.1 10.2-6.5 2.6.5 4.8-.3 11.8-4l8.5-4.7v-23.8l-8.4-4.5c-4.5-2.6-9.3-4.6-10.5-4.6-1.3 0-6.1 2.1-10.7 4.6l-8.4 4.6V335l4.5 2.2c2.5 1.2 4.5 2.5 4.5 2.9 0 2-23.5 22.3-35.7 31-11.7 8.3-28.2 18.9-29.4 18.9-.2 0-.5-3.5-.6-7.8-.3-9-1.1-8 13.4-17 9.5-5.8 22-15.1 31.2-23.1l6.4-5.5-4.3-1.4c-3-1-3.8-1.7-2.9-2.3.8-.4 1.4-1.2 1.5-1.6.2-2.1 2.4-6 4.4-7.6 3.1-2.6 1.3-4.2-6.3-5.7-7-1.3-14-4.1-15.2-6-.5-.8-.4-1.1.2-.7s1.4 0 1.7-.9c.3-.8.2-1.2-.4-.9s-1 .1-1-.4c0-.6-1.1-1.1-2.4-1.1s-2.7-.7-3-1.6c-.9-2.3-.7-3.4.5-3.4.5 0 .8.4.4.9-1 1.7 1.5 2.2 7.1 1.5 5.4-.6 5.5-.7 4.9-3.5-.5-2.1-.2-3.1.9-3.5.9-.3 1.6-1.2 1.6-2s.7-1.4 1.5-1.4c.9 0 1.8-.7 2.1-1.5.8-1.9 2.4-1.9 2.4 0q0 1.5 3 1.5c1.7 0 3 .4 3 1 0 .5 1.6 1 3.5 1 3.3 0 3.5-.2 3.5-3.5 0-2.4-.5-3.5-1.5-3.5-.8 0-1.5-.7-1.5-1.5s-.7-1.5-1.5-1.5-1.5-.5-1.5-1c0-.6.7-1 1.5-1s1.5-.6 1.5-1.3c0-1.4 3.5-4.7 5-4.7.6 0 1-.9 1-2s.7-2 1.5-2 1.5-.7 1.5-1.5.7-1.5 1.5-1.5 1.5-.7 1.5-1.5.7-1.5 1.5-1.5 1.5-.9 1.5-2 .7-2 1.5-2 1.5-.7 1.5-1.5.7-1.5 1.5-1.5 1.5-.7 1.5-1.5.7-1.5 1.5-1.5c1.2 0 1.5-1.3 1.5-5.5V248h-4c-3.8 0-5.2-1.2-2.9-2.5.7-.5.4-1.4-.7-2.6-1.3-1.4-1.4-1.8-.3-1.4 1 .4 1.4-.3 1.5-2.4.1-2-.4-3.1-1.5-3.4-1.3-.3-1.3-.6.4-1.3 1.1-.5 2.1-1.6 2.3-2.4.3-1.2.1-1.2-1.5.1-1.9 1.6-15.6 8.9-16.7 8.9-.3 0-.5-14.7-.4-32.7l.3-32.6 9 .1c5 .1 9.4.1 9.8.2.4 0 .7 11.8.7 26.2v27.2c0 1 7.8-5.1 14.3-11.3l4.7-4.5V151h10l.2 25.7.3 25.8 2.3-3.6c2.2-3.6 2.2-4.1 2.2-37.6 0-26.6-.3-34.3-1.3-35.1-1.3-1.1-12.3-6-26.4-11.8-4.6-1.8-16.1-6.8-25.5-11-9.5-4.2-18.9-8.2-20.8-8.9s-6-2.4-9-3.8c-3-1.3-14-6.1-24.5-10.6-10.4-4.5-24.4-10.6-31-13.4-6.6-2.9-12.4-5.2-13-5.2-.5 0-1.6-.6-2.3-1.3-1.4-1.3-2.7-1.4-5.2-.5m11.4 8.6c3.9 1.9 8.4 3.7 9.9 4 1.4.4 6.8 2.7 11.9 5 5.1 2.4 15.2 6.9 22.3 10 7.2 3.1 22.5 9.7 34 14.7 11.6 5.1 23.3 10.1 26 11.2 2.8 1.1 12 5.1 20.6 8.9s16.2 6.9 16.8 6.9c.7 0 1.1 2.9 1.1 8.5v8.5H99v-8.5c0-5.5.4-8.5 1.1-8.5.6 0 6.8-2.5 13.8-5.6 6.9-3.1 18.2-8 25.1-10.9 19.5-8.2 68.9-29.7 80.7-35.1 4-1.8 9.1-4 11.5-4.8s7.2-2.8 10.8-4.5c3.6-1.6 7.3-3 8.3-3.1 1 0 5.1 1.5 9.1 3.3M109.3 204.2c.3 53 .4 53.4 2.9 64.9 4.3 19.1 10.8 33.2 22.6 49.1 6.6 8.9 22 23.4 36 34 12.5 9.5 16.4 12.1 32.4 21.9l6.6 4-2.3 6.7c-1.2 3.7-2.7 6.6-3.2 6.5-1.7-.3-22.6-13.4-27.8-17.3-2.7-2.1-7.7-5.7-11-7.9-7.5-5.2-25.7-22-31-28.6-14.4-17.9-21.6-30.8-27.8-50.1-6.8-21.1-7-23-7.4-82.7l-.4-53.7h10zm47.7-49.7v3.5h-39v-7h39zm53.8.2.3 3.3H171v-7l19.8.2 19.7.3zm74 0 .3 3.3H216v-7l34.3.2 34.2.3zm45.2-.2v3.5h-40v-7h40zm53 0v3.5h-40v-7h40zm-231 12v3.5h-28v-7h28zm52 0v3.5h-27v-7h27zm87 3c0 5.8.2 6.5 2 6.5 2 0 2 .7 2 35.6v35.5l-2.2-.7c-7.3-2.2-6.6.1-7-24.6-.3-21.8-.4-22.4-3-27.7-4.2-8.5-10.3-14.2-18.2-17.1-2.9-1.1-2.9-.9-1-7.8l.6-2.2h-27.4l.7 2.7c1.5 5.3 1.1 6.6-2 7.6-4.5 1.5-11.1 6.5-14 10.7-1.4 2-3.4 6.2-4.5 9.3-1.9 5.3-2 8.3-2 49.7v44h-2.5c-2.4 0-2.5-.3-2.5-6 0-5.3-.2-6-2-6-2 0-2-.7-2-51.5s0-51.5 2-51.5c1.8 0 2-.7 2-6.5V163h81zm33-3v3.5h-27v-7h27zm53 0v3.5h-28v-7h28zm-118.3 5.7c-.2.7-1 3.9-1.7 7l-1.3 5.8h-10.4l-1.3-5.8c-.7-3.1-1.5-6.3-1.7-7-.4-.9 1.6-1.2 8.2-1.2s8.6.3 8.2 1.2m54.1 3.7 7.2.1v74h-6.4c-3.5 0-7.8-.3-9.5-.6l-3.1-.7v-36.2c0-19.9.3-36.4.6-36.7s1.3-.5 2.2-.3 5 .4 9 .4M148 227.5V279h-20V176h20zm52 0V279h-19V176h19zm-82.2-31.4c.2 1.9 0 5.9-.4 8.9-.6 4.6-.8 5.1-1.5 3-1.3-4.5-1.1-16.2.4-15.8.6.3 1.3 2 1.5 3.9m52.1 1.6c0 4.2-.3 5.2-.9 3.8-.5-1.1-.9-1.4-.9-.7-.1.9-.6 1-1.9.3-1.2-.6-2.5-.5-4.2.5-3.8 2-4 1.8-4-4.1V192h12zm172.4-4.8c.9.1.9 7.3.1 9.6-.5 1.3-.8 1.4-1.5.3-.7-1-.9-.8-1 .7v2l-.9-2c-.5-1.1-.9-1.4-.9-.7-.1.8-.6 1-1.3.6-.7-.5-2.4-.8-3.8-.8-2.2-.1-2.5-.6-2.8-4-.6-6.8-.6-6.8 12.1-5.7m-167.1 38.6-.3 11.5-8.2.1c-7.5.1-12-.1-12.3-.4-.1-.1-.4-5.3-.7-11.5L153 220h22.5zm188.8 22c0 .8-.7 1.5-1.5 1.5s-1.5.6-1.5 1.3c0 1.4-3.5 4.7-5 4.7-.6 0-1 .7-1 1.6s-.9 1.8-2 2.1-2 1.2-2 1.9c0 .8-.7 1.4-1.5 1.4s-1.5.7-1.5 1.5-.7 1.5-1.5 1.5-1.5.7-1.5 1.5c0 1.6-3 5.5-4.2 5.5-.5 0-.8-.7-.8-1.5s-.7-1.5-1.5-1.5-1.5-.7-1.5-1.5c0-1.1-1.1-1.5-4-1.5-3.9 0-4 .1-4 3.6 0 2.7.5 3.7 2 4.1 1.3.3 2 1.4 2 2.9s.6 2.4 1.5 2.4c.8 0 1.5.7 1.5 1.5 0 .9-.6 1.2-1.5.9-1-.4-1.5 0-1.5 1.5 0 1.4-.6 2.1-2 2.1-1.1 0-2 .7-2 1.5q0 1.5-3 1.5c-2.8 0-3 .2-3 4.1 0 2.8-.4 3.9-1.2 3.6-.7-.2-1.2-.9-1.1-1.5.1-.5-.9-1.3-2.2-1.6-2.9-.7-3.1-1.8-1-4 .8-.8 1.5-1.9 1.5-2.5s.7-1.1 1.5-1.1q1.5 0 1.5-3c0-1.7.5-3 1-3 .6 0 1-2.3 1-5 0-2.8-.4-5-1-5-.5 0-1-1.4-1-3q0-3-1.5-3c-.8 0-1.5-.7-1.5-1.5s-.4-1.5-.9-1.5-1.3-.9-1.6-2c-.4-1.1-1.1-1.8-1.6-1.5-.5.4-.9.1-.9-.5 0-.7.7-.9 1.5-.6.9.3 6.9.1 13.4-.4 9.4-.8 14.2-1.8 23.2-4.8 6.3-2.1 11.5-4 11.7-4 .1-.1.2.5.2 1.3m10 2c0 1.9-.4 3.5-1 3.5-.5 0-1.9.9-3 2s-2 2.4-2 3c0 .5-.7 1-1.5 1s-1.5.7-1.5 1.5-.6 1.5-1.4 1.5c-.7 0-1.6.9-1.9 2s-1.2 2-2.1 2-1.6.7-1.6 1.5-.7 1.5-1.5 1.5-1.5.7-1.5 1.5-.7 1.5-1.5 1.5-1.5.7-1.5 1.5-.7 1.5-1.5 1.5-1.5.7-1.5 1.5q0 1.5-3 1.5t-3 1.5c0 .8-.7 1.5-1.5 1.5s-1.5-.7-1.5-1.5.7-1.5 1.5-1.5q1.5 0 1.5-3t1.5-3c.8 0 1.5-.7 1.5-1.5s.7-1.5 1.5-1.5 1.5-.7 1.5-1.5.7-1.5 1.5-1.5 1.5-.9 1.5-2 .7-2 1.5-2 1.5-.7 1.5-1.5.7-1.5 1.5-1.5 1.5-.7 1.5-1.5.7-1.5 1.5-1.5 1.5-.7 1.5-1.5.7-1.5 1.5-1.5 1.5-.7 1.5-1.5.7-1.5 1.5-1.5 1.5-.9 1.5-2c0-1.6.7-2 3.5-2 3.3 0 3.5.2 3.5 3.5m-91.5 2.5c2.9 2.4 14 8.5 13.2 7.3-.4-.7-.1-1 .8-.9 1.8.3 3.2 1.6 1.7 1.6-.7 0-1.2.7-1.2 1.5s-.7 1.5-1.5 1.5c-.9 0-1.5.9-1.5 2.5 0 3.3-1.9 3.2-6.6-.5-6.3-4.9-9.3-9.1-9.4-12.8 0-3.5.6-3.5 4.5-.2m19.2 3.6c-.3.3-1.2.4-1.9.1-.8-.3-.5-.6.6-.6 1.1-.1 1.7.2 1.3.5m11.3 2.9c0 .8.7 1.5 1.5 1.5.9 0 1.5.9 1.5 2.4 0 1.3.7 2.6 1.5 3 .8.3 1.5 1.7 1.5 3.1s.5 2.5 1 2.5c.6 0 1 .7 1 1.5 0 .9-.9 1.5-2.5 1.5-1.4 0-2.5-.5-2.5-1 0-.6-.4-1-1-1-.5 0-1 .9-1 2 0 1.5.7 2 2.6 2 2.2 0 2.5.4 2.2 2.7-.3 2.9-2.8 4.5-2.8 1.8 0-.9-.6-1.5-1.2-1.2-.8.2-1.2 1.8-1 4.1l.3 3.6h-6.6c-5.1 0-6.5-.3-6.5-1.5 0-.8-.7-1.5-1.5-1.5s-1.7-1.1-2.1-2.5c-.3-1.4-1-2.5-1.5-2.5s-.9-2.5-.9-5.5.5-5.5 1-5.5c.6 0 1-1.1 1-2.5 0-1.6.6-2.5 1.5-2.5.8 0 1.5-.7 1.5-1.5s.7-1.5 1.5-1.5 1.4-.3 1.4-.8c-.3-1.9.4-2.2 5.1-2.2 3.8 0 5 .4 5 1.5m-22 13.6c0 4.4-.8 4.8-3.5 1.9-1.2-1.3-1.4-2-.5-2 .7 0 1-.7.6-1.6-.8-2.1.1-3.4 1.9-2.7 1 .3 1.5 1.9 1.5 4.4m48.5 2.9c.7 2.3-.2 4.3-1.6 3.5-1.2-.8-1.2-5.5 0-5.5.5 0 1.2.9 1.6 2M152 287.5v3.6l-13.7-.3-13.8-.3-.3-3.3-.3-3.2H152zm52 0v3.5h-27v-7h27zm-47 12v3.5h-25.9l-1.6-3c-.8-1.6-1.5-3.1-1.5-3.5 0-.3 6.5-.5 14.5-.5H157zm53 0v3.5l-19.2-.2-19.3-.3-.3-3.3-.3-3.2H210zm120 .1c0 .9-.5 1.4-1.2 1.2-1.8-.6-2.1-2.8-.4-2.8.9 0 1.6.7 1.6 1.6m48.7 5.8c6.5 3.3 9.3 5.5 7.3 5.7-.8.1-.2.4 1.4.8 2.7.6 2.4.8-5 4.7-7.3 3.8-8.2 4-11.5 3-1.9-.6-4.7-1.9-6.2-2.9-1.5-.9-2.7-1.5-2.7-1.2s-.9.1-1.9-.5c-1.4-.7-2.1-.6-2.4.3-.3.6-.6.2-.6-1-.1-1.8 1.2-2.9 5.8-5.2 5.7-2.9 5.9-3 7.5-1.2 1.4 1.5 1.4 2 .4 2.4-.9.4-.9.6-.1.6 1.8.1 2.6-1.8 1.4-3.3-.6-.7-.7-1.7-.3-2.1.4-.5 0-.5-.8-.1s-.6 0 .4-.8c2.4-1.9 1.5-2.1 7.3.8M203 310.7c-1.2 1.6-3.5 4.7-5.3 7l-3.1 4.3h-49.4l-4-4.8c-2.1-2.6-4.4-5.7-5.1-7l-1.2-2.2h70.3zm91.5 4.4c3.3 4 7 8.6 8.1 10.3 1.2 1.7 5.9 7.4 10.4 12.6s8.6 10.3 9.1 11.3c.8 1.5-.8 2.9-11.3 9.8l-12.3 8-.3-10.1-.3-10h-5c-4.8 0-5.1-.2-6.5-3.5-1.5-3.7-2-4-5.6-2.6-1.3.4-3.5 1.1-5 1.5l-2.8.6v-29h-43v14.6c0 13.4-.1 14.5-1.7 14-1-.2-3.7-1-6.1-1.7-2.3-.7-4.4-1-4.6-.8s-2.2 5.5-4.5 11.8c-4.1 11.5-4.1 13-.4 13.1.9 0 .9.8.1 3.2-.6 1.8-1.2 3.5-1.4 3.7-.6.7-31.6-18.9-32.7-20.6-.4-.5 1.2-3.2 3.5-5.9s7.5-9.2 11.7-14.4 10.2-12.5 13.4-16.3l5.8-6.7h75.5zm30.2-5.5c-.3.3-1.2.4-1.9.1-.8-.3-.5-.6.6-.6 1.1-.1 1.7.2 1.3.5M242 322c0 3.3-.3 4-1.7 3.8-1.1-.2-1.9.6-2.3 2.1-.3 1.4-1.1 2.6-1.8 2.9-.9.3-1.2-1.5-1.2-6.2V318h3.5c3.4 0 3.5.1 3.5 4m14 2.5v6.5h-9v-13h9zm12-.5c0 4.7-.3 6-1.5 6-.9 0-1.5-.9-1.5-2.5 0-1.7-.4-2.3-1.4-1.9-1.7.7-2.9-1-3.1-4.8-.3-2.6 0-2.8 3.6-2.8h3.9zm41-2.4c0 1.3-3.1 0-4-1.7-1.1-2-1.1-2 1.4-.4 1.4 1 2.6 1.9 2.6 2.1m59.4-1.7c1.1.4 1.5 1 .9 1.4-.5.3-1.9 0-2.9-.8-2-1.5-1.1-1.8 2-.6m-124.6 15.7c1.2.4 2.2 1.3 2.2 2.1 0 .9-.6 1.3-1.5.9-.8-.3-1.5-.1-1.5.4 0 .6-1.1 1-2.5 1-2 0-2.5-.5-2.5-2.5 0-2.6 1.3-3.1 5.8-1.9m20.9 1c.9 2.4-1.2 3.8-4.4 2.9-1.5-.4-2.2-1-1.5-1.2.6-.3 1.2-1.1 1.2-1.9 0-1.9 3.9-1.8 4.7.2m-38.9 9.3c2.5.7 4.2 1.8 4.2 2.6 0 1.8-.5 1.8-4.7.6-3-.9-3.3-.8-4.3 2.4-.7 2.2-1.6 3.2-2.4 2.9-1.3-.5-1.3-1.2 1-9.2.2-.7.7-1.1 1.1-.9.5.3 2.7 1 5.1 1.6m57.2.1c0 .5-1.7 1-3.7.9-3.1 0-3.4-.2-1.8-.9 2.8-1.2 5.5-1.2 5.5 0m11.6 29.7-.7 24.8-3.2 2.5c-1.8 1.3-5.5 4.6-8.3 7.2-2.8 2.7-5.4 4.8-5.8 4.8-.7 0-9.5-7.2-14.8-12.2l-2.8-2.6V351h36.3zm-63.5-14c-1.2 2-1.4 1.4-.5-1.2.4-.9.9-1.4 1.1-1.1.3.2 0 1.3-.6 2.3m22.9-1.2c0 1-1 1.4-3.5 1.3-2.2-.1-3.5-.6-3.5-1.5 0-.8 1.2-1.3 3.5-1.3 2.4 0 3.5.5 3.5 1.5m-8 9.1c0 .2-.7.4-1.5.4s-1.5-.4-1.5-1c0-.5.7-.7 1.5-.4.8.4 1.5.8 1.5 1m-27.5 4.3c-.6.5-2.5-1-2.5-2 0-.5.6-.4 1.4.3s1.2 1.5 1.1 1.7m2 2c5.2 2 6 2.8 4.7 4.9-.7 1-1.9.9-5.8-.5-2.7-1-5.1-1.8-5.2-2-.4-.1.7-4.3 1.1-4.3.1 0 2.4.8 5.2 1.9m25.5.1c0 1.7.7 2 4.6 2h4.5l-.3 3.7c-.3 3.3-.6 3.8-2.8 3.7-4.5-.3-4.8-.4-5.3-2.4-.3-1.3-1-1.8-2.1-1.4-1.2.4-1.6 0-1.6-1.5 0-1.8-.6-2.1-4-2.1-3.3 0-4-.3-4-2 0-1.8.7-2 5.5-2s5.5.2 5.5 2m-17.2 23.7-1.3 6.2-9.2-5.7c-5-3.1-9.1-5.8-8.9-5.9.1-.2 3.4.8 7.3 2.1l7 2.4 2.9-9.2 2.9-9.1.3 6.5c.1 3.6-.3 9.3-1 12.7m9.2-16.2c0 .9-.6 1.2-1.5.9-.8-.4-1.2-1-.9-1.5.8-1.4 2.4-1 2.4.6m4 4c0 .8-.6 1.5-1.4 1.5s-1.6-.7-2-1.5c-.4-1 .1-1.5 1.4-1.5 1.1 0 2 .7 2 1.5m-20 3c0 1.9-2 2.9-3.1 1.8-1.4-1.4 0-4.3 1.7-3.6.8.3 1.4 1.1 1.4 1.8m33 1c0 1.2-1.4 1.5-6.5 1.5-6 0-7.5-.6-5.8-2.3.3-.4 3.3-.7 6.5-.7 4.5 0 5.8.3 5.8 1.5m-13.7 8.6c-.5 6-1.2 7.9-2.9 7.2-1.2-.4-1.3-1.5-.8-5.2.8-5.5 1.2-6.3 2.7-5.8.7.2 1.1 1.9 1 3.8m-6.9 6.5c2.4.9 2 3.3-.4 2.7-1.1-.3-2-1.2-2-1.9 0-1.6.2-1.6 2.4-.8m23.6 6.8c0 .3-.4.8-1 1.1-.5.3-1 .1-1-.4 0-.6.5-1.1 1-1.1.6 0 1 .2 1 .4" data-index="0"></path><path d="M233 84.1c-8.5 3.8-17.7 7.8-20.5 8.8-2.7 1.1-9.5 3.9-15 6.4-18.3 8.2-33.3 14.7-34 14.7-.3 0-10.2 4.2-21.8 9.4-11.7 5.1-21.9 9.6-22.7 9.9s58.1.5 131 .6c131.5 0 132.5 0 128.5-1.9-7.1-3.4-40.3-18-41-18-.4 0-11.4-4.7-24.5-10.5S288.9 93 288.5 93c-.3 0-8.8-3.6-18.7-8s-18.8-8-19.7-8c-.9.1-8.6 3.2-17.1 7.1m5.4 11.4c1.8.9 5.2 3.6 7.6 6 2.4 2.5 5 4.5 5.8 4.5.7 0 1 .5.6 1.2s-.3.8.5.4c.8-.6.9-1.2.2-2-.8-1-.1-2.3 2.7-5.1 11.8-12 28.2-6.5 28.2 9.5 0 10.3-5.5 16.2-15 16.2-5.5 0-7.9-1.2-14.6-7.4-2.4-2.2-4.7-3.7-5.2-3.4-.6.3-1.2-.4-1.5-1.5-.3-1.2-1-1.8-1.7-1.4-.8.5-.6 1.3.6 2.6 1.6 1.8 1.6 2 0 3.8-4.1 4.5-9.4 7.3-14.1 7.3-9.6 0-16-6.6-15.8-16.3.2-11.9 11.4-19.3 21.7-14.4" data-index="1"></path><path d="M266.8 100.8c-1.4.2-4.7 2.1-7.1 4.2-2.4 2.2-4.7 3.6-5.1 3.3-.3-.3-.6-.3-.6 0 0 1.4 7.4 8.9 10.1 10.3 8.4 4.3 17.2-3.2 13.6-11.8-2.1-5.1-5.1-6.7-10.9-6m-40.4 1.7c-2.8 1.9-4.8 6.9-4 10.1.4 1.4 1.9 3.7 3.3 5 4.5 4.1 9.5 3 17.8-3.9l3-2.5-3.5-3.7c-6.1-6.3-12.1-8.2-16.6-5m-70.2 135c0 1.6.2 2.2.5 1.2.2-.9.2-2.3 0-3-.3-.6-.5.1-.5 1.8M300 288c0 .5.5 1 1 1 .6 0 1-.5 1-1 0-.6-.4-1-1-1-.5 0-1 .4-1 1m73 24.5c0 .8-.7 1.5-1.6 1.5-.8 0-1.3-.4-1-.9.3-.4-.6-.6-2-.3l-2.5.4 2.7 1.4c1.4.8 3.3 1.4 4 1.4.8 0 2.3.6 3.4 1.2 1.5 1 2.2 1 3.2 0 1.1-1.1 1-1.2-.4-.7-1.1.4-1.8.2-1.8-.4s-.9-1.1-1.9-1.1c-1.4 0-1.8-.5-1.4-2 .3-1.1.3-2-.1-2-.3 0-.6.7-.6 1.5m-111 44c0 .8.9 1.5 2 1.5 1.3 0 2 .7 2 2s-.7 2-2 2c-1.7 0-2 .7-2 4s.3 4 2 4c1.3 0 2 .7 2 2s-.7 2-2 2-2 .7-2 2c0 3.7 4.1 2.3 9.2-3 2.6-2.8 5-5 5.3-5 .2 0 1.5 1.1 2.9 2.5s2.2 2.5 1.9 2.5.4.8 1.6 1.9c1.7 1.5 1.8 2 .7 2.4-.8.3-2 0-2.6-.8-2.2-2.7-5-2.8-7.6-.4-3.1 2.9-3 3.6.4 6.5 3.2 2.8 4.1 2.9 5.7.8 1-1.4 1.5-1.5 3.1-.5 1 .7 1.2 1 .4.8-1.4-.3-2.2.1-5.5 3-2.1 2-2 2-7.9-3.2-1.6-1.4-4-2.5-5.2-2.5-2 0-2.4.5-2.4 2.9s.3 2.8 2 2.4c1.1-.3 2 0 2 .6s-.9 1.1-2.1 1.1c-1.8 0-2 .5-1.8 4.7.3 6.5.8 7.3 8.5 13.3l6.6 5.2 6.6-6 6.7-5.9v-13.4c0-12.2-.2-13.4-1.7-13.1-1.1.2-1.8-.3-1.8-1.4s.6-1.5 2-1.1c1.8.5 2 0 2-3.9 0-3.8-.3-4.4-2.1-4.4-1.4 0-1.9-.5-1.7-1.8.2-.9 1-1.7 1.8-1.7s1.6-.8 1.8-1.8c.3-1.4-.4-1.7-3.6-1.7-3.3 0-4.1.4-4.6 2.2-1.1 4.2-.7 5.8 1.4 5.8 1.5 0 2 .7 2 2.9 0 3.6-1.9 5.1-2.7 2.2-.3-1.2-1.2-2.1-1.9-2.1-1 0-1.4-1.5-1.4-5.5 0-5.4 0-5.5-3-5.5s-3 .1-3 5.5c0 4.8-.2 5.5-2 5.5-1.3 0-2 .7-2 2 0 1.1-.7 2-1.5 2-1 0-1.5-1.1-1.5-3.5s.5-3.5 1.5-3.5c.8 0 1.5-.1 1.5-.3.1-.1.3-1.9.6-4l.6-3.7h-4.6c-3.4 0-4.6.4-4.6 1.5m8 34.5c0 1.1-.7 2-1.5 2s-1.5-.9-1.5-2 .7-2 1.5-2 1.5.9 1.5 2m-4 5.5c0 .8-.7 1.5-1.5 1.5-1.3 0-1.4-.3-.3-1.5 1.6-1.8 1.8-1.8 1.8 0m130.7-184.4c-.3 1.2-1 1.8-1.5 1.5s-1.2.4-1.5 1.5c-.3 1.2-1 1.8-1.6 1.4-.6-.3-1.1.1-1.1.9 0 .9-.7 1.6-1.5 1.6s-1.5.7-1.5 1.5-.7 1.5-1.5 1.5-1.5.7-1.5 1.5-.7 1.5-1.5 1.5c-1.2 0-1.5 1.3-1.5 6s.3 6 1.5 6c.8 0 1.5.7 1.5 1.5s.7 1.5 1.5 1.5 1.5.7 1.5 1.5q0 1.5 3 1.5t3 1.5c0 1.2 1.4 1.5 6.5 1.5 3.6 0 6.5-.4 6.5-.9s1-1.3 2.3-1.7c3.1-1 6.6-3.7 6.7-5.2 0-.6.7-1.2 1.5-1.2 1.1 0 1.5-1.2 1.5-5.1 0-5-.1-5.2-7.5-12.4-4.1-4-7.5-7.8-7.5-8.4s-1.5-1.1-3.4-1.1c-2.6 0-3.5.5-3.9 2.1M385.3 257c-.3 1.1-1.2 2-1.9 2-.8 0-1.4.7-1.4 1.5s.7 1.5 1.6 1.5 1.8.9 2.1 2c.5 1.8 1.4 2 7.4 2 5.7 0 6.7.3 6.3 1.5-.4.8-1.2 1.5-2 1.5s-1.4.7-1.4 1.5-.7 1.5-1.5 1.5-1.5.7-1.5 1.5-.7 1.5-1.5 1.5-1.5.7-1.5 1.5-.6 1.5-1.4 1.5-2.3 1.3-3.2 2.9c-1 1.6-2.6 3.2-3.6 3.4-1 .3-1.8 1.2-1.8 2.1s-.7 1.6-1.5 1.6-1.5.7-1.5 1.5-.7 1.5-1.5 1.5c-1 0-1.5 1.1-1.5 3.5 0 3.3.2 3.5 3.5 3.5 2.4 0 3.5-.5 3.5-1.5 0-.8.7-1.5 1.5-1.5s1.5-.7 1.5-1.5.6-1.5 1.4-1.5c.7 0 1.6-.9 1.9-2.1s1-1.8 1.7-1.4 1.4-.2 1.7-1.4 1.2-2.1 1.9-2.1c.8 0 1.4-.7 1.4-1.5s.7-1.5 1.5-1.5 1.5-.7 1.5-1.5.7-1.5 1.5-1.5 1.5-.6 1.5-1.3c0-1.1 4.3-3.7 6.2-3.7.4 0 .8 2.7.8 6 0 4.7.3 6 1.5 6 .8 0 1.5.7 1.5 1.5s.9 1.5 2 1.5 2-.7 2-1.5.7-1.5 1.5-1.5c1.2 0 1.5-1.6 1.5-8.5 0-6.7-.3-8.5-1.4-8.5s-1.6-1.4-1.8-4.8l-.3-4.7-4.7-.3c-3.1-.2-4.8-.8-4.8-1.6 0-1.4-6.8-2.6-14.3-2.6-3.1 0-4 .4-4.4 2m17.7 3.4c0 .7.9 1.6 2 1.9s2 1.3 2 2.2.5 1.3 1.1 1c.6-.4 1.3.2 1.6 1.4s1.2 2.1 1.9 2.1c1.1 0 1.4 1.9 1.4 8 0 6.3-.3 8-1.5 8-1.1 0-1.5-1.6-1.7-6.8-.2-4.7-.7-6.6-1.5-6.5-.7.2-1.3-.3-1.3-1.1 0-.7-.9-1.6-2-1.9s-2-1.2-2-2.1-.7-1.6-1.5-1.6-1.5-.7-1.5-1.5c0-1.2-1.4-1.5-7-1.5s-7-.3-7-1.5 1.6-1.5 8.5-1.5c6.6 0 8.5.3 8.5 1.4" data-index="2"></path></svg>